# xmcd CD database file
#
# Track frame offsets:
#	150
#	18945
#	35063
#	55378
#	83596
#	104067
#	132181
#	149218
#	166721
#	183454
#	220116
#	236874
#
# Disc length: 3341 seconds
#
# Revision: 0
# Processed by: cddbd v1.5.2PL0 Copyright (c) Steve Scherf et al.
# Submitted via: CDex 1.70beta2
#
DISCID=ae0d0b0c
DTITLE=Catfish Kray Blues Band - Splash
DYEAR=2009
DGENRE=Blues
TTITLE0=Chuckie's Place
TTITLE1=Catfishin'
TTITLE2=My Kind Of Guy
TTITLE3=Busy Woman Blues
TTITLE4=Lady Luck
TTITLE5=Furr-Bag Blues
TTITLE6=Good Bottle Of Wine
TTITLE7=How'd You Learn To Shake It Like That
TTITLE8=Without Me
TTITLE9=Quittin' Time Blues
TTITLE10=Wandering Eyes
TTITLE11=Cherry Street Shuffle
EXTD=YEAR: 2009
EXTT0=
EXTT1=
EXTT2=
EXTT3=
EXTT4=
EXTT5=
EXTT6=
EXTT7=
EXTT8=
EXTT9=
EXTT10=
EXTT11=
PLAYORDER=
